<svg width="100" height="100" xmlns="http://www.w3.org/2000/svg">

 <g>
  <title>background</title>
  <rect fill="none" id="canvas_background" height="402" width="582" y="-1" x="-1"/>
 </g>
 <g>
  <title>Layer 1</title>
  <circle id="svg_2" r="45" fill="#000000" cy="50" cx="50"/>
  <path id="svg_4" fill-rule="evenodd" fill="#FFFFFF" d="m43.848,59.640999c0,-4.308998 0,-8.606998 0,-12.905998c-0.014,0 -0.028,0 -0.042999,0c-0.577,4.297001 -1.154999,8.596001 -1.734001,12.902c-1.061001,0 -2.110001,0 -3.176998,0c-0.610001,-4.234001 -1.219002,-8.465 -1.829002,-12.697002c-0.011997,0 -0.021,0 -0.032997,0.002003c0,4.229 0,8.454998 0,12.695c-1.488003,0 -2.956001,0 -4.423,0c-0.037003,-0.131001 -0.054001,-19.213001 -0.018002,-19.542999c0.139,-0.039001 6.105999,-0.059002 6.577,-0.018002c0.030003,0.174 0.066002,0.355 0.093002,0.536999c0.167,1.178001 0.329998,2.357002 0.497997,3.535c0.128002,0.893002 0.259003,1.787003 0.388,2.68c0.109001,0.752003 0.216999,1.504002 0.358002,2.257999c0.383999,-3 0.767998,-6.003998 1.153,-9.011997c2.214001,0 4.411999,0 6.608997,0c0.042,0.134998 0.051003,19.370998 0.007,19.565998c-1.460999,0.000999 -2.921997,0.000999 -4.425999,0.000999z" clip-rule="evenodd"/>
  <path id="svg_5" fill-rule="evenodd" fill="#FFFFFF" d="m49.737,59.647999c0,-6.535 0,-13.044998 0,-19.57c0.050999,-0.003998 0.098,-0.014 0.145,-0.014c1.914001,0.010002 3.827,0.010002 5.740002,0.037003c0.901997,0.011997 1.806999,0.07 2.694,0.253998c0.806,0.167999 1.550999,0.471001 2.132,1.082001c0.535,0.563999 0.862,1.23 0.956997,2.006001c0.114002,0.922001 0.130001,1.851997 0.132999,2.778999c0.009003,2.710999 0.011002,5.422001 -0.000999,8.134998c-0.001999,0.723003 -0.051998,1.443001 -0.098999,2.166c-0.029999,0.453003 -0.127998,0.898003 -0.318001,1.318001c-0.312,0.686001 -0.854,1.117001 -1.535999,1.397999c-0.488998,0.199001 -1.005001,0.297001 -1.527,0.330002c-0.677998,0.042999 -1.356998,0.071999 -2.035,0.076c-2.014,0.009998 -4.026001,0.001999 -6.040001,0.001999c-0.073997,0.000999 -0.147999,0.000999 -0.244999,0.000999zm5.101002,-16.222c-0.038002,0.271 -0.025002,12.717003 0.010998,12.861c0.316002,0.004002 0.631001,-0.017998 0.934002,-0.126999c0.256001,-0.091999 0.438999,-0.257999 0.5,-0.533001c0.027,-0.126999 0.056999,-0.256001 0.076,-0.382999c0.084999,-0.550999 0.093998,-1.106998 0.093998,-1.66c0.004002,-2.666 0.004002,-5.334 -0.001999,-8c0,-0.422001 -0.025002,-0.846001 -0.059002,-1.267998c-0.031998,-0.395 -0.217999,-0.688004 -0.619999,-0.799004c-0.301998,-0.078999 -0.612,-0.097 -0.933998,-0.091z" clip-rule="evenodd"/>
  <path id="svg_6" fill-rule="evenodd" fill="#FFFFFF" d="m67.566002,58.449001c-0.112,0.419998 -0.216003,0.806999 -0.317001,1.188999c-1.530998,0 -3.042999,0 -4.565002,0c0,-6.525002 0,-13.039001 0,-19.563999c1.622002,0 3.234001,0 4.873001,0c0.002998,0.07 0.009003,0.140999 0.009003,0.210999c0.000999,1.384998 0,2.768002 0,4.150002c0,0.065998 0,0.132999 0,0.198997c0.013,0.004002 0.023994,0.007999 0.036995,0.012001c0.063004,-0.063999 0.128006,-0.129002 0.191002,-0.193001c0.733002,-0.747997 1.624001,-1.132999 2.673004,-1.146c0.641998,-0.007999 1.266998,0.077999 1.858994,0.344002c0.838005,0.372997 1.340004,1.028999 1.507004,1.916c0.083,0.438 0.084,0.892998 0.085999,1.34c0.011002,1.701 0.007004,3.401997 0.007004,5.104c0.000999,1.146 0.001999,2.292999 0,3.438999c-0.000999,0.645 -0.045006,1.280998 -0.136002,1.919998c-0.125,0.873001 -0.579002,1.521 -1.297005,2.006001c-0.701996,0.475002 -1.483994,0.629002 -2.314995,0.555c-0.952003,-0.085999 -1.725998,-0.528999 -2.371002,-1.218998c-0.075996,-0.081001 -0.149002,-0.163002 -0.240997,-0.263zm1.464996,-6.795002l0,0c0.000999,-1.271 0.004005,-2.542999 -0.000999,-3.813999c-0.001999,-0.382999 -0.011002,-0.772999 -0.102997,-1.150002c-0.107002,-0.440998 -0.460999,-0.640999 -0.896004,-0.507999c-0.173996,0.051003 -0.295998,0.162003 -0.344002,0.336002c-0.034996,0.125 -0.064995,0.255997 -0.072998,0.382999c-0.021996,0.417999 -0.045998,0.834 -0.046997,1.251999c-0.003998,2.306999 -0.001999,4.611 -0.000999,6.916c0,0.256001 -0.004005,0.512001 0.015999,0.765999c0.020996,0.273003 0.057999,0.547001 0.107002,0.813999c0.034996,0.186001 0.145996,0.328003 0.327995,0.404003c0.425003,0.175999 0.815002,-0.021 0.918999,-0.469002c0.011002,-0.047001 0.023003,-0.098 0.026001,-0.146c0.023003,-0.367001 0.063004,-0.731998 0.065002,-1.099998c0.010002,-1.229 0.003998,-2.455002 0.003998,-3.684002z" clip-rule="evenodd"/>
  <path id="svg_7" fill-rule="evenodd" fill="#FFFFFF" d="m31.145,40.076c0,6.528999 0,13.036999 0,19.561001c-1.691,0 -3.376001,0 -5.071001,0c0,-6.52 0,-13.033001 0,-19.561001c1.687,0 3.371,0 5.071001,0z" clip-rule="evenodd"/>
 </g>
</svg>